# Blender v3.6.1 OBJ File: ''
# www.blender.org
mtllib River.mtl
o Цилиндр
v -2.000000 4.024549 -9.807853
v 2.000000 4.024549 -9.807853
v -2.000000 3.086583 -9.238795
v 2.000000 3.086583 -9.238795
v -2.000000 2.222149 -8.314696
v 2.000000 2.222149 -8.314696
v -2.000000 1.464466 -7.071068
v 2.000000 1.464466 -7.071068
v -2.000000 0.842652 -5.555702
v 2.000000 0.842652 -5.555702
v -2.000000 0.380602 -3.826835
v 2.000000 0.380602 -3.826835
v -2.000000 0.096074 -1.950903
v 2.000000 0.096074 -1.950903
v -2.000000 0.000000 0.000000
v 2.000000 0.000000 0.000000
v -2.000000 0.096074 1.950903
v 2.000000 0.096074 1.950903
v -2.000000 0.380602 3.826835
v 2.000000 0.380602 3.826835
v -2.000000 0.842652 5.555702
v 2.000000 0.842652 5.555702
v -2.000000 1.464466 7.071068
v 2.000000 1.464466 7.071068
v -2.000000 2.222149 8.314696
v 2.000000 2.222149 8.314696
v -2.000000 3.086583 9.238795
v 2.000000 3.086583 9.238795
v -2.000000 4.024549 9.807853
v 2.000000 4.024549 9.807853
vt 0.968750 0.500000
vt 0.968750 1.000000
vt 0.937500 1.000000
vt 0.937500 0.500000
vt 0.906250 1.000000
vt 0.906250 0.500000
vt 0.875000 1.000000
vt 0.875000 0.500000
vt 0.843750 1.000000
vt 0.843750 0.500000
vt 0.812500 1.000000
vt 0.812500 0.500000
vt 0.781250 1.000000
vt 0.781250 0.500000
vt 0.750000 1.000000
vt 0.750000 0.500000
vt 0.718750 1.000000
vt 0.718750 0.500000
vt 0.687500 1.000000
vt 0.687500 0.500000
vt 0.656250 1.000000
vt 0.656250 0.500000
vt 0.625000 1.000000
vt 0.625000 0.500000
vt 0.593750 1.000000
vt 0.593750 0.500000
vt 0.562500 1.000000
vt 0.562500 0.500000
vt 0.531250 1.000000
vt 0.531250 0.500000
vn 0.0000 -0.5187 -0.8550
vn 0.0000 -0.7303 -0.6831
vn 0.0000 -0.8540 -0.5203
vn 0.0000 -0.9251 -0.3796
vn 0.0000 -0.9661 -0.2582
vn 0.0000 -0.9887 -0.1500
vn 0.0000 -0.9988 -0.0492
vn 0.0000 -0.9988 0.0492
vn 0.0000 -0.9887 0.1500
vn 0.0000 -0.9661 0.2582
vn 0.0000 -0.9251 0.3796
vn 0.0000 -0.8540 0.5203
vn 0.0000 -0.7303 0.6831
vn 0.0000 -0.5187 0.8550
usemtl None
s off
f 1/1/1 2/2/1 4/3/1 3/4/1
f 3/4/2 4/3/2 6/5/2 5/6/2
f 5/6/3 6/5/3 8/7/3 7/8/3
f 7/8/4 8/7/4 10/9/4 9/10/4
f 9/10/5 10/9/5 12/11/5 11/12/5
f 11/12/6 12/11/6 14/13/6 13/14/6
f 13/14/7 14/13/7 16/15/7 15/16/7
f 15/16/8 16/15/8 18/17/8 17/18/8
f 17/18/9 18/17/9 20/19/9 19/20/9
f 19/20/10 20/19/10 22/21/10 21/22/10
f 21/22/11 22/21/11 24/23/11 23/24/11
f 23/24/12 24/23/12 26/25/12 25/26/12
f 25/26/13 26/25/13 28/27/13 27/28/13
f 27/28/14 28/27/14 30/29/14 29/30/14
